<?xml version="1.0" encoding="UTF-8"?>
<svg xmlns="http://www.w3.org/2000/svg"
     xmlns:xlink="http://www.w3.org/1999/xlink"
     xmlns:gadfly="http://www.gadflyjl.org/ns"
     version="1.2"
     width="101.6mm" height="101.6mm" viewBox="0 0 101.6 101.6"
     stroke="none"
     fill="#000000"
     stroke-width="0.3"
     font-size="3.88"
>
<g class="plotroot xscalable yscalable" id="img-8b498f0e-1">
  <g font-size="3.88" font-family="'PT Sans','Helvetica Neue','Helvetica',sans-serif" fill="#564A55" stroke="#000000" stroke-opacity="0.000" id="img-8b498f0e-2">
    <text x="56.38" y="89.99" text-anchor="middle" dy="0.6em">x</text>
  </g>
  <g class="guide xlabels" font-size="2.82" font-family="'PT Sans Caption','Helvetica Neue','Helvetica',sans-serif" fill="#6C606B" id="img-8b498f0e-3">
    <text x="18.15" y="83.32" text-anchor="middle" dy="0.6em">0</text>
    <text x="37.26" y="83.32" text-anchor="middle" dy="0.6em">25</text>
    <text x="56.38" y="83.32" text-anchor="middle" dy="0.6em">50</text>
    <text x="75.49" y="83.32" text-anchor="middle" dy="0.6em">75</text>
    <text x="94.6" y="83.32" text-anchor="middle" dy="0.6em">100</text>
  </g>
<g clip-path="url(#img-8b498f0e-4)">
  <g id="img-8b498f0e-5">
    <g pointer-events="visible" opacity="1" fill="#000000" fill-opacity="0.000" stroke="#000000" stroke-opacity="0.000" class="guide background" id="img-8b498f0e-6">
      <rect x="16.15" y="5" width="80.45" height="77.32"/>
    </g>
    <g class="guide ygridlines xfixed" stroke-dasharray="0.5,0.5" stroke-width="0.2" stroke="#D0D0E0" id="img-8b498f0e-7">
      <path fill="none" d="M16.15,80.31 L 96.6 80.31"/>
      <path fill="none" d="M16.15,55.88 L 96.6 55.88"/>
      <path fill="none" d="M16.15,31.44 L 96.6 31.44"/>
      <path fill="none" d="M16.15,7 L 96.6 7"/>
    </g>
    <g class="guide xgridlines yfixed" stroke-dasharray="0.5,0.5" stroke-width="0.2" stroke="#D0D0E0" id="img-8b498f0e-8">
      <path fill="none" d="M18.15,5 L 18.15 82.32"/>
      <path fill="none" d="M37.26,5 L 37.26 82.32"/>
      <path fill="none" d="M56.38,5 L 56.38 82.32"/>
      <path fill="none" d="M75.49,5 L 75.49 82.32"/>
      <path fill="none" d="M94.6,5 L 94.6 82.32"/>
    </g>
    <g class="plotpanel" id="img-8b498f0e-9">
      <g stroke-width="0.3" fill="#000000" fill-opacity="0.000" class="geometry" stroke-dasharray="none" stroke="#00BFFF" id="img-8b498f0e-10">
        <path fill="none" d="M27.33,10.81 L 28.09 34.99 28.86 47.43 29.62 54.96 30.38 56.34 31.15 60.35 31.91 62.09 32.68 64.09 33.44 64.68 34.21 65.95 34.97 67.08 35.74 67.61 36.5 68.46 37.26 69.16 38.03 69.39 38.79 70.01 39.56 70.32 40.32 70.49 41.09 70.94 41.85 71.22 42.62 71.56 43.38 71.65 44.14 71.95 44.91 72.06 45.67 72.2 46.44 72.43 47.2 72.58 47.97 72.75 48.73 72.81 49.5 73.01 50.26 73.12 51.02 73.29 51.79 73.42 52.55 73.44 53.32 73.57 54.08 73.68 54.85 73.61 55.61 73.77 56.38 73.78 57.14 73.94 57.91 74.02 58.67 74.12 59.43 74.14 60.2 74.22 60.96 74.24 61.73 74.31 62.49 74.38 63.26 74.4 64.02 74.41 64.79 74.48 65.55 74.48 66.31 74.64 67.08 74.62 67.84 74.7 68.61 74.73 69.37 74.77 70.14 74.84 70.9 74.85 71.67 74.9 72.43 74.91 73.19 74.95 73.96 74.95 74.72 75.03 75.49 75.05 76.25 75.08 77.02 75.06 77.78 75.11 78.55 75.15 79.31 75.19 80.07 75.18 80.84 75.2 81.6 75.2 82.37 75.3 83.13 75.31 83.9 75.3 84.66 75.39 85.43 75.39 86.19 75.41 86.96 75.38 87.72 75.41 88.48 75.46 89.25 75.44 90.01 75.52 90.78 75.46 91.54 75.49 92.31 75.55 93.07 75.52 93.84 75.59 94.6 75.62"/>
      </g>
    </g>
  </g>
</g>
  <g class="guide ylabels" font-size="2.82" font-family="'PT Sans Caption','Helvetica Neue','Helvetica',sans-serif" fill="#6C606B" id="img-8b498f0e-11">
    <text x="15.15" y="80.31" text-anchor="end" dy="0.35em">0</text>
    <text x="15.15" y="55.88" text-anchor="end" dy="0.35em">10</text>
    <text x="15.15" y="31.44" text-anchor="end" dy="0.35em">20</text>
    <text x="15.15" y="7" text-anchor="end" dy="0.35em">30</text>
  </g>
  <g font-size="3.88" font-family="'PT Sans','Helvetica Neue','Helvetica',sans-serif" fill="#564A55" stroke="#000000" stroke-opacity="0.000" id="img-8b498f0e-12">
    <text x="8.81" y="43.66" text-anchor="end" dy="0.35em">y</text>
  </g>
</g>
<defs>
  <clipPath id="img-8b498f0e-4">
  <path d="M16.15,5 L 96.6 5 96.6 82.32 16.15 82.32" />
</clipPath>
</defs>
</svg>
